<svg width="1440" height="1024" viewBox="0 0 1440 1024" fill="none" xmlns="http://www.w3.org/2000/svg">
<g clip-path="url(#clip0_2005_92)">
<rect width="1440" height="1024" fill="white"/>
<g filter="url(#filter0_d_2005_92)">
<path d="M703.105 934.11C640.834 883.113 563.469 854.867 487.559 828.095C411.65 801.324 334.043 774.371 270.256 725.253C206.469 676.155 157.775 599.942 163.15 519.627C173.697 362.312 347.257 259.105 393.243 112.155C408.053 64.8557 406.154 9.53471 376.15 -29.9052C334.184 -85.0848 248.879 -91.5301 186.971 -60.3338C125.064 -29.1374 82.7343 30.568 49.6185 91.4655C24.1806 138.24 2.622 187.116 -14.7946 237.426C-36.7169 300.829 -53.8103 369.545 -101.191 417.047C-161.26 477.258 -208.277 464.912 -252 431.857V1102.22H771.62V1009.82C752.567 981.471 729.574 955.79 703.105 934.11Z" fill="#27496D"/>
</g>
<g filter="url(#filter1_d_2005_92)">
<path d="M1160.79 146.459C975.997 159.719 799.849 96.1845 623.885 53.1794C563.421 38.3928 499.266 25.8003 436.351 33.6039C335.744 46.0818 260.334 108.014 213.022 173.475C165.711 238.937 137.613 311.42 83.6855 374.134C61.7296 399.682 33.3424 424.065 0 442V-368H1574.92C1611.56 -259.953 1613.04 -144.751 1545.64 -46.1484C1473.42 59.4565 1322.84 134.84 1160.79 146.459Z" fill="#ACDBDF"/>
</g>
<path d="M444 494C444 550.333 398.333 596 342 596" stroke="#69779B" stroke-width="80"/>
<path d="M552 503C552 611.248 464.248 699 356 699" stroke="#69779B" stroke-width="20"/>
<path d="M517 517C517 434.157 449.843 367 367 367C284.157 367 217 434.157 217 517C217 599.843 284.157 667 367 667" stroke="#69779B" stroke-width="4" stroke-linecap="round"/>
</g>
<defs>
<filter id="filter0_d_2005_92" x="-252" y="-79" width="1032.62" height="1189.22" filterUnits="userSpaceOnUse" color-interpolation-filters="sRGB">
<feFlood flood-opacity="0" result="BackgroundImageFix"/>
<feColorMatrix in="SourceAlpha" type="matrix" values="0 0 0 0 0 0 0 0 0 0 0 0 0 0 0 0 0 0 127 0" result="hardAlpha"/>
<feOffset dx="5" dy="4"/>
<feGaussianBlur stdDeviation="2"/>
<feComposite in2="hardAlpha" operator="out"/>
<feColorMatrix type="matrix" values="0 0 0 0 0 0 0 0 0 0 0 0 0 0 0 0 0 0 0.5 0"/>
<feBlend mode="normal" in2="BackgroundImageFix" result="effect1_dropShadow_2005_92"/>
<feBlend mode="normal" in="SourceGraphic" in2="effect1_dropShadow_2005_92" result="shape"/>
</filter>
<filter id="filter1_d_2005_92" x="-1" y="-368" width="1620" height="830" filterUnits="userSpaceOnUse" color-interpolation-filters="sRGB">
<feFlood flood-opacity="0" result="BackgroundImageFix"/>
<feColorMatrix in="SourceAlpha" type="matrix" values="0 0 0 0 0 0 0 0 0 0 0 0 0 0 0 0 0 0 127 0" result="hardAlpha"/>
<feOffset dx="9" dy="10"/>
<feGaussianBlur stdDeviation="5"/>
<feComposite in2="hardAlpha" operator="out"/>
<feColorMatrix type="matrix" values="0 0 0 0 0 0 0 0 0 0 0 0 0 0 0 0 0 0 0.5 0"/>
<feBlend mode="normal" in2="BackgroundImageFix" result="effect1_dropShadow_2005_92"/>
<feBlend mode="normal" in="SourceGraphic" in2="effect1_dropShadow_2005_92" result="shape"/>
</filter>
<clipPath id="clip0_2005_92">
<rect width="1440" height="1024" fill="white"/>
</clipPath>
</defs>
</svg>
