<svg width="24" height="13" viewBox="0 0 24 13" fill="none" xmlns="http://www.w3.org/2000/svg">
<path d="M0.340369 5.07478C0.569809 4.85301 0.877952 4.73146 1.19701 4.73687C1.51607 4.74229 1.81991 4.87422 2.0417 5.10366L5.89916 9.09709L14.7728 0.326953C15.0041 0.127888 15.3024 0.024152 15.6073 0.0367469C15.9122 0.0493418 16.2009 0.177326 16.415 0.394789C16.6291 0.612253 16.7526 0.902945 16.7604 1.20801C16.7683 1.51308 16.6599 1.80973 16.4572 2.03791L6.72215 11.6635C6.49784 11.8854 6.19538 12.0102 5.87991 12.0112H5.86908C5.71029 12.0103 5.55327 11.9779 5.40706 11.9159C5.26086 11.854 5.12836 11.7637 5.01721 11.6503L0.311492 6.77611C0.089713 6.54667 -0.031838 6.23853 -0.0264226 5.91947C-0.0210071 5.60041 0.110931 5.29657 0.340369 5.07478ZM21.992 0.326953L13.122 9.09709L12.8055 8.76861C12.6959 8.65432 12.5647 8.5628 12.4196 8.49931C12.2745 8.43582 12.1183 8.4016 11.96 8.39861C11.8016 8.39563 11.6442 8.42394 11.4968 8.48192C11.3494 8.5399 11.215 8.62641 11.1011 8.73649C10.9872 8.84657 10.8962 8.97805 10.8332 9.12339C10.7703 9.26873 10.7366 9.42506 10.7342 9.58343C10.7318 9.7418 10.7607 9.89908 10.8193 10.0463C10.8778 10.1934 10.9648 10.3276 11.0753 10.4411L12.2376 11.6443C12.3488 11.7577 12.4813 11.8479 12.6275 11.9099C12.7737 11.9718 12.9307 12.0042 13.0895 12.0052H13.1027C13.4182 12.0042 13.7207 11.8793 13.945 11.6575L23.6801 2.03189C23.8784 1.8027 23.9829 1.50712 23.9727 1.20421C23.9626 0.901307 23.8384 0.613398 23.6252 0.398029C23.412 0.182661 23.1253 0.0557002 22.8225 0.0425232C22.5197 0.0293462 22.2231 0.130924 21.992 0.326953Z" fill="blue"/>
</svg>
